HIERARCHY
ROOT hip
{
	OFFSET 0.000000 0.000000 0.000000 
	CHANNELS 6 Xposition Yposition Zposition Xrotation Zrotation Yrotation
	JOINT abdomen
	{
		OFFSET 0.000000 3.402643 0.000000 
		CHANNELS 3 Xrotation Zrotation Yrotation
		JOINT chest
		{
			OFFSET 0.000000 8.438565 -0.680529 
			CHANNELS 3 Xrotation Zrotation Yrotation
			JOINT neck
			{
				OFFSET 0.000000 10.207942 -0.272212 
				CHANNELS 3 Xrotation Zrotation Yrotation
				JOINT head
				{
					OFFSET 0.000000 3.130431 0.000000 
					CHANNELS 3 Xrotation Zrotation Yrotation
					End Site
					{
						OFFSET 0.000000 3.130435 0.000000 
					}
				}
			}
			JOINT lCollar
			{
				OFFSET 3.470700 6.669187 -0.816635 
				CHANNELS 3 Yrotation Zrotation Xrotation
				JOINT lShldr
				{
					OFFSET 3.198488 0.000000 0.000000 
					CHANNELS 3 Zrotation Yrotation Xrotation
					JOINT lForeArm
					{
						OFFSET 10.139888 0.000000 0.000000 
						CHANNELS 3 Yrotation Zrotation Xrotation
						JOINT lHand
						{
							OFFSET 8.370511 0.000000 0.000000 
							CHANNELS 3 Zrotation Yrotation Xrotation
							End Site
							{
								OFFSET 4.083176 0.000000 0.000000 
							}
						}
					}
				}
			}
			JOINT rCollar
			{
				OFFSET -3.470700 6.669187 -0.816635 
				CHANNELS 3 Yrotation Zrotation Xrotation
				JOINT rShldr
				{
					OFFSET -3.198488 0.000000 0.000000 
					CHANNELS 3 Zrotation Yrotation Xrotation
					JOINT rForeArm
					{
						OFFSET -10.139888 0.000000 0.000000 
						CHANNELS 3 Yrotation Zrotation Xrotation
						JOINT rHand
						{
							OFFSET -8.370511 0.000000 0.000000 
							CHANNELS 3 Zrotation Yrotation Xrotation
							End Site
							{
								OFFSET -4.083176 0.000000 0.000000 
							}
						}
					}
				}
			}
		}
	}
	JOINT lThigh
	{
		OFFSET 5.308129 -1.633274 1.361059 
		CHANNELS 3 Xrotation Zrotation Yrotation
		JOINT lShin
		{
			OFFSET -2.041588 -20.007561 0.000000 
			CHANNELS 3 Xrotation Zrotation Yrotation
			JOINT lFoot
			{
				OFFSET 0.000000 -19.190928 -1.224953 
				CHANNELS 3 Xrotation Yrotation Zrotation
				End Site
				{
					OFFSET 0.000000 -2.449906 4.627600 
				}
			}
		}
	}
	JOINT rThigh
	{
		OFFSET -5.308129 -1.633274 1.361059 
		CHANNELS 3 Xrotation Zrotation Yrotation
		JOINT rShin
		{
			OFFSET 2.041588 -20.007561 0.000000 
			CHANNELS 3 Xrotation Zrotation Yrotation
			JOINT rFoot
			{
				OFFSET 0.000000 -19.190928 -1.224953 
				CHANNELS 3 Xrotation Yrotation Zrotation
				End Site
				{
					OFFSET 0.000000 -2.449906 4.627600 
				}
			}
		}
	}
}
MOTION
Frames: 8
Frame Time: 0.016667
-0.840849 43.366623 0.535920 -1.391850 -4.920430 -1.609550 -21.333500 1.349490 1.401980 18.544701 -0.771009 0.896222 13.622500 -1.108340 -2.999910 11.547800 3.731240 -0.999047 2.000000 -2.000000 0.000000 -93.075897 10.315600 168.951996 35.996498 -0.325460 0.080411 0.044997 -0.010794 -140.779007 -2.000000 2.000000 0.000000 -90.081001 -160.865997 -7.079280 -42.861801 0.315062 0.093002 -0.054523 0.006316 -139.177994 18.305941 3.978343 -6.587833 -23.202702 7.548300 -1.789994 4.507309 25.949364 -1.205503 6.950122 5.709277 15.621308 3.564650 -4.218739 -0.115427 -26.218222 -15.887005 -8.708201 
-0.840113 43.367142 0.532999 -1.401590 -4.891120 -1.609420 -21.391500 1.310590 1.437340 18.437300 -0.829511 0.899834 13.651500 -1.051710 -2.984790 11.548000 3.750610 -0.996492 2.000000 -2.000000 0.000000 -92.958801 10.384600 169.205994 35.928101 -0.325555 0.080279 0.045035 -0.011340 -140.975006 -2.000000 2.000000 0.000000 -90.110199 -160.826996 -6.893830 -42.773899 0.315204 0.092849 -0.054542 0.006780 -139.343994 18.336432 3.926217 -6.581055 -23.245455 7.577547 -1.808493 4.551087 25.923685 -1.226715 6.955347 5.673861 15.599003 3.562193 -4.234076 -0.124877 -26.223631 -15.900773 -8.708400 
-0.839833 43.367382 0.530542 -1.411330 -4.861810 -1.599540 -21.507999 1.265820 1.484870 18.241899 -0.926977 0.926136 13.782100 -1.104440 -3.049270 11.576900 3.711570 -1.019240 2.000000 -2.000000 0.000000 -92.665604 9.691570 169.354004 33.945702 -0.328264 0.076402 0.045048 -0.011531 -141.042999 -2.000000 2.000000 0.000000 -90.110001 -160.718994 -6.649950 -42.588299 0.315504 0.092523 -0.054585 0.007737 -139.684998 18.312920 3.887304 -6.598302 -23.192171 7.582236 -1.797446 4.531162 25.930428 -1.226039 6.965147 5.645619 15.597097 3.563239 -4.233686 -0.134576 -26.209518 -15.900231 -8.715283 
-0.839553 43.367657 0.528087 -1.421070 -4.832500 -1.579900 -21.614500 1.215520 1.545460 18.046499 -1.024410 0.943337 13.923000 -1.148400 -3.120730 11.605900 3.672540 -1.051780 2.000000 -2.000000 0.000000 -92.382202 8.988760 169.492004 31.973000 -0.330825 0.072453 0.045064 -0.011749 -141.121002 -2.000000 2.000000 0.000000 -90.109901 -160.610992 -6.406060 -42.402802 0.315803 0.092197 -0.054634 0.008692 -140.026993 18.299192 3.856513 -6.594954 -23.157261 7.595043 -1.800047 4.540877 25.932314 -1.237747 6.974481 5.619398 15.585576 3.556154 -4.225899 -0.115438 -26.221758 -15.917095 -8.731074 
-0.838373 43.368553 0.523726 -1.421010 -4.803220 -1.561100 -21.624300 1.202980 1.539810 18.046499 -1.014650 0.933144 13.941900 -1.147960 -3.110160 11.625400 3.672330 -1.050530 2.000000 -2.000000 0.000000 -92.177101 8.511240 169.912994 30.947599 -0.332102 0.070366 0.045152 -0.012894 -141.531006 -2.000000 2.000000 0.000000 -90.139198 -160.649994 -6.298550 -42.471100 0.315693 0.092317 -0.054633 0.008665 -140.016998 18.271599 3.832555 -6.628329 -23.130032 7.583210 -1.796281 4.525205 25.925611 -1.239195 6.952021 5.587922 15.558809 3.569229 -4.228149 -0.124992 -26.232115 -15.897084 -8.730737 
-0.837190 43.369587 0.519363 -1.411150 -4.773950 -1.543100 -21.624300 1.190470 1.534270 18.036699 -1.014640 0.933316 13.961500 -1.157640 -3.111670 11.635200 3.672220 -1.049910 2.000000 -2.000000 0.000000 -91.981796 8.033710 170.334000 29.931999 -0.333329 0.068277 0.045251 -0.014066 -141.951004 -2.000000 2.000000 0.000000 -90.158699 -160.679001 -6.200820 -42.529701 0.315599 0.092420 -0.054633 0.008665 -140.016998 18.243544 3.811220 -6.661683 -23.103355 7.568614 -1.782016 4.521242 25.938997 -1.241420 6.945077 5.551968 15.535042 3.569761 -4.227208 -0.115158 -26.230276 -15.882123 -8.718083 
-0.837849 43.369587 0.513341 -1.411210 -4.803240 -1.513080 -21.624399 1.208630 1.527070 18.046499 -0.995138 0.932288 13.989200 -1.099800 -3.076790 11.664900 3.700950 -1.034380 2.000000 -2.000000 0.000000 -92.020897 8.023760 170.255997 29.961300 -0.333295 0.068338 0.045239 -0.013930 -141.901993 -2.000000 2.000000 0.000000 -90.207603 -160.766006 -6.122490 -42.500401 0.315646 0.092369 -0.054626 0.008529 -139.968994 18.247824 3.839618 -6.665869 -23.132889 7.574043 -1.793931 4.558239 25.916721 -1.237889 6.948282 5.581423 15.528527 3.570684 -4.226922 -0.124868 -26.253958 -15.859520 -8.720212 
-0.838507 43.369450 0.507318 -1.411250 -4.822760 -1.493080 -21.614799 1.217750 1.523570 18.046499 -0.985382 0.931861 14.017600 -1.042620 -3.051580 11.684800 3.729770 -1.019450 2.000000 -2.000000 0.000000 -92.059898 8.013830 170.186996 29.990601 -0.333260 0.068398 0.045230 -0.013821 -141.863007 -2.000000 2.000000 0.000000 -90.256500 -160.854004 -6.053920 -42.471100 0.315693 0.092317 -0.054617 0.008365 -139.910004 18.241854 3.866319 -6.679672 -23.139257 7.585682 -1.787341 4.569933 25.908998 -1.252726 6.938121 5.600374 15.490201 3.569743 -4.227226 -0.115159 -26.289881 -15.822364 -8.702666 
